<svg preserveAspectRatio="xMidYMid meet" data-bbox="0 0 545.12 446.05" viewBox="0 0 545.13 446.05" xmlns="http://www.w3.org/2000/svg" data-type="ugc" role="presentation" aria-hidden="true" aria-label="">
    <g>
        <path d="M296.43 11.33c-1.15-.21-3.1-.71-4.11-1.72h0c-.99-.99-1.5-2.94-1.72-4.09-.04-.16-.27-.16-.3 0-.21 1.15-.71 3.1-1.72 4.11-1.01.99-2.95 1.5-4.11 1.72-.16.04-.16.27 0 .29 1.15.21 3.1.71 4.11 1.72 1.14 1.14 1.58 2.79 1.76 3.88.03.16.27.16.3 0 .24-1.17.74-2.95 1.68-3.89 1.01-.99 2.95-1.5 4.11-1.72.16-.04.16-.27 0-.3m-46.94 36.59V17.38c0-.25.2-.46.46-.46h6.79c.25 0 .46.2.46.46v30.54c0 .25-.2.46-.46.46h-6.79c-.25 0-.46-.2-.46-.46m10.96.46c-.3 0-.5-.32-.36-.59h-.01l11.59-22.76a.4.4 0 0 0-.36-.59h-10.84c-.27 0-.47-.2-.47-.46v-6.62c0-.25.21-.46.47-.46h24.42c.31 0 .51.34.36.6l-12.94 23.36c-.15.27.05.6.36.6h12.44c.27 0 .47.2.47.46v5.98c0 .25-.21.46-.47.46h-24.66Zm-20.96-31.47h7.15c.32 0 .55.34.43.63l-11.81 30.73c-.05.13-.23.13-.3.01l-7.19-14.4a.81.81 0 0 0-.72-.44c-.3 0-.58.15-.72.44l-7.19 14.4c-.07.12-.24.12-.3-.01l-11.81-30.73c-.11-.31.11-.63.43-.63h7.14c.19 0 .36.12.43.3l5.03 13.16c.05.12.24.13.3 0l6-13.07c.13-.3.42-.47.7-.47.28.01.55.17.68.47l6 13.07c.05.13.24.13.3 0l5.03-13.16c.07-.17.24-.3.43-.3Z" stroke="#1d97ff" stroke-width="32.38" fill="none" stroke-linecap="round" stroke-linejoin="round"></path>
        <path stroke="#1d97ff" stroke-width="32.38" fill="none" stroke-linecap="round" stroke-linejoin="round" d="M141.95 130.75v17.35c0 9.588-7.772 17.36-17.36 17.36q0 0 0 0c-9.588 0-17.36-7.772-17.36-17.36v-17.35c0-9.588 7.772-17.36 17.36-17.36q0 0 0 0c9.588 0 17.36 7.772 17.36 17.36"></path>
        <path d="M124.59 114.39c9.02 0 16.36 7.34 16.36 16.36v17.36c0 9.02-7.34 16.36-16.36 16.36s-16.36-7.34-16.36-16.36v-17.36c0-9.02 7.34-16.36 16.36-16.36m0-1c-9.55 0-17.36 7.81-17.36 17.36v17.36c0 9.55 7.81 17.36 17.36 17.36s17.36-7.81 17.36-17.36v-17.36c0-9.55-7.81-17.36-17.36-17.36" stroke="#1d97ff" stroke-width="32.38" fill="none" stroke-linecap="round" stroke-linejoin="round"></path>
        <path stroke="#1d97ff" stroke-width="32.38" fill="none" stroke-linecap="round" stroke-linejoin="round" d="M192.45 273.62v17.35c0 9.588-7.772 17.36-17.36 17.36q0 0 0 0c-9.588 0-17.36-7.772-17.36-17.36v-17.35c0-9.588 7.772-17.36 17.36-17.36q0 0 0 0c9.588 0 17.36 7.772 17.36 17.36"></path>
        <path d="M175.09 257.26c9.02 0 16.36 7.34 16.36 16.36v17.36c0 9.02-7.34 16.36-16.36 16.36s-16.36-7.34-16.36-16.36v-17.36c0-9.02 7.34-16.36 16.36-16.36m0-1c-9.55 0-17.36 7.81-17.36 17.36v17.36c0 9.55 7.81 17.36 17.36 17.36h0c9.55 0 17.36-7.81 17.36-17.36v-17.36c0-9.55-7.81-17.36-17.36-17.36" stroke="#1d97ff" stroke-width="32.38" fill="none" stroke-linecap="round" stroke-linejoin="round"></path>
        <path stroke="#1d97ff" stroke-width="32.38" fill="none" stroke-linecap="round" stroke-linejoin="round" d="M399.32 131.99v17.35c0 9.588-7.772 17.36-17.36 17.36q0 0 0 0c-9.588 0-17.36-7.772-17.36-17.36v-17.35c0-9.588 7.772-17.36 17.36-17.36q0 0 0 0c9.588 0 17.36 7.772 17.36 17.36"></path>
        <path d="M381.96 115.63c9.02 0 16.36 7.34 16.36 16.36v17.36c0 9.02-7.34 16.36-16.36 16.36s-16.36-7.34-16.36-16.36v-17.36c0-9.02 7.34-16.36 16.36-16.36m0-1c-9.55 0-17.36 7.81-17.36 17.36v17.36c0 9.55 7.81 17.36 17.36 17.36s17.36-7.81 17.36-17.36v-17.36c0-9.55-7.81-17.36-17.36-17.36" stroke="#1d97ff" stroke-width="32.38" fill="none" stroke-linecap="round" stroke-linejoin="round"></path>
        <path stroke="#1d97ff" stroke-width="32.38" fill="none" stroke-linecap="round" stroke-linejoin="round" d="M345.28 208.24v17.35c0 9.588-7.772 17.36-17.36 17.36q0 0 0 0c-9.588 0-17.36-7.772-17.36-17.36v-17.35c0-9.588 7.772-17.36 17.36-17.36q0 0 0 0c9.588 0 17.36 7.772 17.36 17.36"></path>
        <path d="M327.92 191.88c9.02 0 16.36 7.34 16.36 16.36v17.36c0 9.02-7.34 16.36-16.36 16.36s-16.36-7.34-16.36-16.36v-17.36c0-9.02 7.34-16.36 16.36-16.36m0-1c-9.55 0-17.36 7.81-17.36 17.36v17.36c0 9.55 7.81 17.36 17.36 17.36s17.36-7.81 17.36-17.36v-17.36c0-9.55-7.81-17.36-17.36-17.36" stroke="#1d97ff" stroke-width="32.38" fill="none" stroke-linecap="round" stroke-linejoin="round"></path>
        <path stroke="#1d97ff" stroke-width="32.38" fill="none" stroke-linecap="round" stroke-linejoin="round" d="M422.15 221.25v17.35c0 9.588-7.772 17.36-17.36 17.36q0 0 0 0c-9.588 0-17.36-7.772-17.36-17.36v-17.35c0-9.588 7.772-17.36 17.36-17.36q0 0 0 0c9.588 0 17.36 7.772 17.36 17.36"></path>
        <path d="M404.79 204.89c9.02 0 16.36 7.34 16.36 16.36v17.36c0 9.02-7.34 16.36-16.36 16.36s-16.36-7.34-16.36-16.36v-17.36c0-9.02 7.34-16.36 16.36-16.36m0-1c-9.55 0-17.36 7.81-17.36 17.36v17.36c0 9.55 7.81 17.36 17.36 17.36s17.36-7.81 17.36-17.36v-17.36c0-9.55-7.81-17.36-17.36-17.36" stroke="#1d97ff" stroke-width="32.38" fill="none" stroke-linecap="round" stroke-linejoin="round"></path>
        <path stroke="#1d97ff" stroke-width="32.38" fill="none" stroke-linecap="round" stroke-linejoin="round" d="M241.14 223.11v17.35c0 9.588-7.772 17.36-17.36 17.36q0 0 0 0c-9.588 0-17.36-7.772-17.36-17.36v-17.35c0-9.588 7.772-17.36 17.36-17.36q0 0 0 0c9.588 0 17.36 7.772 17.36 17.36"></path>
        <path d="M223.77 206.75c9.02 0 16.36 7.34 16.36 16.36v17.36c0 9.02-7.34 16.36-16.36 16.36s-16.36-7.34-16.36-16.36v-17.36c0-9.02 7.34-16.36 16.36-16.36m0-1c-9.55 0-17.36 7.81-17.36 17.36v17.36c0 9.55 7.81 17.36 17.36 17.36s17.36-7.81 17.36-17.36v-17.36c0-9.55-7.81-17.36-17.36-17.36" stroke="#1d97ff" stroke-width="32.38" fill="none" stroke-linecap="round" stroke-linejoin="round"></path>
        <path stroke="#1d97ff" stroke-width="32.38" fill="none" stroke-linecap="round" stroke-linejoin="round" d="M325.88 71.61v12.9c0 7.196-5.834 13.03-13.03 13.03H189.9c-7.196 0-13.03-5.834-13.03-13.03v-12.9c0-7.196 5.834-13.03 13.03-13.03h122.95c7.196 0 13.03 5.834 13.03 13.03"></path>
        <path d="M312.85 59.58c6.64 0 12.03 5.4 12.03 12.03V84.5c0 6.64-5.4 12.03-12.03 12.03H189.91c-6.63 0-12.03-5.4-12.03-12.03V71.61c0-6.64 5.4-12.03 12.03-12.03zm0-1H189.91c-7.17 0-13.03 5.86-13.03 13.03V84.5c0 7.17 5.86 13.03 13.03 13.03h122.94c7.17 0 13.03-5.86 13.03-13.03V71.61c0-7.17-5.86-13.03-13.03-13.03" stroke="#1d97ff" stroke-width="32.38" fill="none" stroke-linecap="round" stroke-linejoin="round"></path>
        <path d="M386.34 67.37c41.69-2.13 73.31 25.53 74.94 67.43 1.83 47.02-33.18 78.86-79.83 73.96-83.9-8.82-82.53-136.92 4.89-141.39m.32 44.47c-23.79 2.98-24 50.85 1.21 53.1 14.14 1.26 22.28-7.86 23.99-21.15 2.22-17.17-5.24-34.45-25.21-31.95Z" stroke="#1d97ff" stroke-width="32.38" fill="none" stroke-linecap="round" stroke-linejoin="round"></path>
        <path d="M268.03 67.88c7.34-1.19 15.43-1.27 22.77-.13 10.16 1.57 31.9 9.55 34.78 10.62.19.07.31.24.3.45-.06.88-.26 3.38-.76 6.33l-27.79 32.31c-4.56-3.98-10.19-9.12-16.36-10.22-4.1-.73-14.4-.29-14.08 5.67.16 3.06 3.37 3.54 5.74 3.97 21.35 3.9 49.89 3.65 59.48 27.95 11.69 29.64-7.11 54.62-35.85 61.89-24.9 6.3-54.62 1.85-71.03-19.34l26.67-30.93c6.8 7.21 16.28 12.42 26.4 12.66 3.69.09 13.08-.33 13.1-5.52.01-3.1-3.19-3.99-5.62-4.5-5-1.05-10.71-1.22-15.88-2.1-25.03-4.23-45.13-13.5-46.35-42.06-1.1-25.61 20.96-43.23 44.49-47.05Z" stroke="#1d97ff" stroke-width="32.38" fill="none" stroke-linecap="round" stroke-linejoin="round"></path>
        <path stroke="#1d97ff" stroke-width="32.38" fill="none" stroke-linecap="round" stroke-linejoin="round" d="M229.44 71.14v134.11h-46.46V71.14z"></path>
        <path d="m195.63 128.38-47.29 5.97c-.87-14.06-10.61-25.18-25.64-22.48-20.27 3.64-24.48 43.05-6.22 51.62 14.2 6.66 27.35-2.81 30.64-16.95l45.15 15.53c-8.28 28.17-31.56 46.43-61.03 47.32-51.65 1.56-84-38.19-73.3-88.39 9.05-42.47 50.47-62.13 90.98-50.3 26.78 7.82 44.41 29.99 46.71 57.69Z" stroke="#1d97ff" stroke-width="32.38" fill="none" stroke-linecap="round" stroke-linejoin="round"></path>
        <path d="M386.34 60.05c41.69-2.13 73.31 25.53 74.94 67.43 1.83 47.02-33.18 78.86-79.83 73.96-83.9-8.82-82.53-136.92 4.89-141.39m.32 44.47c-23.79 2.98-24 50.85 1.21 53.1 14.14 1.26 22.28-7.86 23.99-21.15 2.22-17.17-5.24-34.45-25.21-31.95Z" stroke="#1d97ff" stroke-width="32.38" fill="none" stroke-linecap="round" stroke-linejoin="round"></path>
        <path stroke="#1d97ff" stroke-width="32.38" fill="none" stroke-linecap="round" stroke-linejoin="round" d="M302 89.65v85.36h-45.55V89.65z"></path>
        <path d="M268.03 60.56c7.34-1.19 15.43-1.27 22.77-.13 12.95 2.01 25 8.3 34.32 17.4l-27.79 32.31c-4.56-3.98-10.19-9.12-16.36-10.22-4.1-.73-14.4-.29-14.08 5.67.16 3.06 3.37 3.54 5.74 3.97 21.35 3.9 49.89 3.65 59.48 27.95 11.69 29.64-7.11 54.62-35.85 61.89-24.9 6.3-54.62 1.85-71.03-19.34l26.67-30.93c6.8 7.21 16.28 12.42 26.4 12.66 3.69.09 13.08-.33 13.1-5.52.01-3.1-3.19-3.99-5.62-4.5-5-1.05-10.71-1.22-15.88-2.1-25.03-4.23-45.13-13.5-46.35-42.06-1.1-25.61 20.96-43.23 44.49-47.05Z" stroke="#1d97ff" stroke-width="32.38" fill="none" stroke-linecap="round" stroke-linejoin="round"></path>
        <path d="M231.07 107.4c6.3-29.54 35.1-43.22 63.28-34.99" stroke="#1d97ff" stroke-width="32.38" fill="none" stroke-linecap="round" stroke-linejoin="round"></path>
        <path stroke="#1d97ff" stroke-width="32.38" fill="none" stroke-linecap="round" stroke-linejoin="round" d="M229.44 63.82v134.11h-46.46V63.82z"></path>
        <path d="m195.63 121.06-47.29 5.97c-.87-14.06-10.61-25.18-25.64-22.48-20.27 3.64-24.48 43.05-6.22 51.62 14.2 6.66 27.35-2.81 30.64-16.95l45.15 15.53c-8.28 28.17-31.56 46.43-61.03 47.32-51.65 1.56-84-38.19-73.3-88.39 9.05-42.47 50.47-62.13 90.98-50.3 26.78 7.82 44.41 29.99 46.71 57.69Z" stroke="#1d97ff" stroke-width="32.38" fill="none" stroke-linecap="round" stroke-linejoin="round"></path>
        <path d="M69.02 116.56c7.6-35.64 42.35-52.14 76.35-42.22" stroke="#1d97ff" stroke-width="32.38" fill="none" stroke-linecap="round" stroke-linejoin="round"></path>
        <path d="M332.08 114.76c7.6-35.64 42.35-52.14 76.35-42.22" stroke="#1d97ff" stroke-width="32.38" fill="none" stroke-linecap="round" stroke-linejoin="round"></path>
        <path stroke="#1d97ff" stroke-width="32.38" fill="none" stroke-linecap="round" stroke-linejoin="round" d="M191.67 82.02V71.29h28.83"></path>
        <path d="M170.05 221.75c45.33-2.32 76.8 29.82 74.92 74.85-1.83 43.84-36.81 71.06-79.82 66.53-83.85-8.82-82.44-136.92 4.89-141.39Zm.31 44.48c-24.46 3.06-25.17 56.28 6.98 53.07 18.24-1.82 21.9-26.56 16.07-40.48-4.15-9.91-12.45-13.92-23.05-12.59" stroke="#1d97ff" stroke-width="32.38" fill="none" stroke-linecap="round" stroke-linejoin="round"></path>
        <path d="m383.44 359.63 46.82-134.07 52.69-.05 46.32 123.57a17.63 17.63 0 0 1 .93 8.84l-.26 1.72H476.7l-4.1-17.33-.57-.42-34.66.06-4.88 17.69h-49.05Zm64.54-54.8h15.49l-7.26-28.69z" stroke="#1d97ff" stroke-width="32.38" fill="none" stroke-linecap="round" stroke-linejoin="round"></path>
        <path d="m280.88 328.05-2.65 30.51-47.34-4.29 12.34-133.36 59.97 5.2c28.91 2.97 49.38 23.89 47.98 53.51-.94 20.01-11.51 37.14-29.96 45.2-13.03 5.69-26.46 4.73-40.34 3.24Zm2.82-39.88 9.16.8c14.03 1.22 16.12-22.22 2.04-23.44l-9.16-.8z" stroke="#1d97ff" stroke-width="32.38" fill="none" stroke-linecap="round" stroke-linejoin="round"></path>
        <path stroke="#1d97ff" stroke-width="32.38" fill="none" stroke-linecap="round" stroke-linejoin="round" d="M393.14 225.53v134.11h-46.46V225.53z"></path>
        <path d="M170.05 214.43c45.33-2.32 76.8 29.82 74.92 74.85-1.83 43.84-36.81 71.06-79.82 66.53-83.85-8.82-82.44-136.92 4.89-141.39Zm.31 44.48c-24.46 3.06-25.17 56.28 6.98 53.07 18.24-1.82 21.9-26.56 16.07-40.48-4.15-9.91-12.45-13.92-23.05-12.59" stroke="#1d97ff" stroke-width="32.38" fill="none" stroke-linecap="round" stroke-linejoin="round"></path>
        <path d="m383.44 352.31 46.82-134.07 52.69-.05 46.98 134.13h-53.24l-4.1-17.33-.57-.42-34.66.06-4.88 17.69h-49.05Zm64.54-54.8h15.49l-7.26-28.69z" stroke="#1d97ff" stroke-width="32.38" fill="none" stroke-linecap="round" stroke-linejoin="round"></path>
        <path d="m280.88 320.72-2.65 30.51-46.61-4.05 11.61-133.6 59.97 5.2c28.91 2.97 49.38 23.89 47.98 53.51-.94 20.01-11.51 37.14-29.96 45.2-13.03 5.69-26.46 4.73-40.34 3.24Zm2.82-39.88 9.16.8c14.03 1.22 16.12-22.22 2.04-23.44l-9.16-.8z" stroke="#1d97ff" stroke-width="32.38" fill="none" stroke-linecap="round" stroke-linejoin="round"></path>
        <path stroke="#1d97ff" stroke-width="32.38" fill="none" stroke-linecap="round" stroke-linejoin="round" d="M393.14 218.21v134.11h-46.46V218.21z"></path>
        <path d="M116.06 268.88c7.6-35.64 42.35-52.14 76.35-42.22" stroke="#1d97ff" stroke-width="32.38" fill="none" stroke-linecap="round" stroke-linejoin="round"></path>
        <path stroke="#1d97ff" stroke-width="32.38" fill="none" stroke-linecap="round" stroke-linejoin="round" d="m250.04 233.38 1.06-10.68 28.69 2.83"></path>
        <path stroke="#1d97ff" stroke-width="32.38" fill="none" stroke-linecap="round" stroke-linejoin="round" d="M354.88 235.84v-10.73h28.83"></path>
        <path stroke="#1d97ff" stroke-width="32.38" fill="none" stroke-linecap="round" stroke-linejoin="round" d="m433.22 235.38 3.56-10.27h28.83"></path>
        <path stroke="#1d97ff" stroke-width="32.38" fill="none" stroke-linecap="round" stroke-linejoin="round" d="M130.02 225.53v43.52H96.79v90.58H50v-90.58H16.44v-43.52z"></path>
        <path stroke="#1d97ff" stroke-width="32.38" fill="none" stroke-linecap="round" stroke-linejoin="round" d="M130.02 218.21v43.52H96.79v90.58H50v-90.58H16.44v-43.52z"></path>
        <path stroke="#1d97ff" stroke-width="32.38" fill="none" stroke-linecap="round" stroke-linejoin="round" d="M24.79 236.41v-10.73h97.09"></path>
        <path d="M296.43 5.93c-1.15-.21-3.1-.71-4.11-1.72h0c-.99-.99-1.5-2.94-1.72-4.09-.04-.16-.27-.16-.3 0-.21 1.15-.71 3.1-1.72 4.11-1.01.99-2.95 1.5-4.11 1.72-.16.04-.16.27 0 .29 1.15.21 3.1.71 4.11 1.72 1.14 1.14 1.58 2.79 1.76 3.88.03.16.27.16.3 0 .24-1.17.74-2.95 1.68-3.89 1.01-.99 2.95-1.5 4.11-1.72.16-.04.16-.27 0-.3m-46.94 36.59V11.98c0-.25.2-.46.46-.46h6.79c.25 0 .46.2.46.46v30.54c0 .25-.2.46-.46.46h-6.79c-.25 0-.46-.2-.46-.46m10.96.46c-.3 0-.5-.32-.36-.59h-.01l11.59-22.76a.4.4 0 0 0-.36-.59h-10.84c-.27 0-.47-.2-.47-.46v-6.62c0-.25.21-.46.47-.46h24.42c.31 0 .51.34.36.6l-12.94 23.36c-.15.27.05.6.36.6h12.44c.27 0 .47.2.47.46v5.98c0 .25-.21.46-.47.46h-24.66Zm-20.96-31.47h7.15c.32 0 .55.34.43.63l-11.81 30.73c-.05.13-.23.13-.3.01l-7.19-14.4a.81.81 0 0 0-.72-.44c-.3 0-.58.15-.72.44l-7.19 14.4c-.07.12-.24.12-.3-.01l-11.81-30.73c-.11-.31.11-.63.43-.63h7.14c.19 0 .36.12.43.3l5.03 13.16c.05.12.24.13.3 0l6-13.07c.13-.3.42-.47.7-.47.28.01.55.17.68.47l6 13.07c.05.13.24.13.3 0l5.03-13.16c.07-.17.24-.3.43-.3Z" stroke-width="32.38" fill="none" stroke-linecap="round" stroke-linejoin="round" stroke="#0354ec"></path>
        <path stroke-width="32.38" fill="none" stroke-linecap="round" stroke-linejoin="round" stroke="#0354ec" d="M141.95 125.35v17.35c0 9.588-7.772 17.36-17.36 17.36q0 0 0 0c-9.588 0-17.36-7.772-17.36-17.36v-17.35c0-9.588 7.772-17.36 17.36-17.36q0 0 0 0c9.588 0 17.36 7.772 17.36 17.36"></path>
        <path d="M124.59 108.99c9.02 0 16.36 7.34 16.36 16.36v17.36c0 9.02-7.34 16.36-16.36 16.36s-16.36-7.34-16.36-16.36v-17.36c0-9.02 7.34-16.36 16.36-16.36m0-1c-9.55 0-17.36 7.81-17.36 17.36v17.36c0 9.55 7.81 17.36 17.36 17.36s17.36-7.81 17.36-17.36v-17.36c0-9.55-7.81-17.36-17.36-17.36" stroke-width="32.38" fill="none" stroke-linecap="round" stroke-linejoin="round" stroke="#0354ec"></path>
        <path stroke-width="32.38" fill="none" stroke-linecap="round" stroke-linejoin="round" stroke="#0354ec" d="M192.45 268.23v17.35c0 9.588-7.772 17.36-17.36 17.36q0 0 0 0c-9.588 0-17.36-7.772-17.36-17.36v-17.35c0-9.588 7.772-17.36 17.36-17.36q0 0 0 0c9.588 0 17.36 7.772 17.36 17.36"></path>
        <path d="M175.09 251.87c9.02 0 16.36 7.34 16.36 16.36v17.36c0 9.02-7.34 16.36-16.36 16.36s-16.36-7.34-16.36-16.36v-17.36c0-9.02 7.34-16.36 16.36-16.36m0-1c-9.55 0-17.36 7.81-17.36 17.36v17.36c0 9.55 7.81 17.36 17.36 17.36h0c9.55 0 17.36-7.81 17.36-17.36v-17.36c0-9.55-7.81-17.36-17.36-17.36" stroke-width="32.38" fill="none" stroke-linecap="round" stroke-linejoin="round" stroke="#0354ec"></path>
        <path stroke-width="32.38" fill="none" stroke-linecap="round" stroke-linejoin="round" stroke="#0354ec" d="M399.32 126.59v17.35c0 9.588-7.772 17.36-17.36 17.36q0 0 0 0c-9.588 0-17.36-7.772-17.36-17.36v-17.35c0-9.588 7.772-17.36 17.36-17.36q0 0 0 0c9.588 0 17.36 7.772 17.36 17.36"></path>
        <path d="M381.96 110.23c9.02 0 16.36 7.34 16.36 16.36v17.36c0 9.02-7.34 16.36-16.36 16.36s-16.36-7.34-16.36-16.36v-17.36c0-9.02 7.34-16.36 16.36-16.36m0-1c-9.55 0-17.36 7.81-17.36 17.36v17.36c0 9.55 7.81 17.36 17.36 17.36s17.36-7.81 17.36-17.36v-17.36c0-9.55-7.81-17.36-17.36-17.36" stroke-width="32.38" fill="none" stroke-linecap="round" stroke-linejoin="round" stroke="#0354ec"></path>
        <path stroke-width="32.38" fill="none" stroke-linecap="round" stroke-linejoin="round" stroke="#0354ec" d="M345.28 202.84v17.35c0 9.588-7.772 17.36-17.36 17.36q0 0 0 0c-9.588 0-17.36-7.772-17.36-17.36v-17.35c0-9.588 7.772-17.36 17.36-17.36q0 0 0 0c9.588 0 17.36 7.772 17.36 17.36"></path>
        <path d="M327.92 186.48c9.02 0 16.36 7.34 16.36 16.36v17.36c0 9.02-7.34 16.36-16.36 16.36s-16.36-7.34-16.36-16.36v-17.36c0-9.02 7.34-16.36 16.36-16.36m0-1c-9.55 0-17.36 7.81-17.36 17.36v17.36c0 9.55 7.81 17.36 17.36 17.36s17.36-7.81 17.36-17.36v-17.36c0-9.55-7.81-17.36-17.36-17.36" stroke-width="32.38" fill="none" stroke-linecap="round" stroke-linejoin="round" stroke="#0354ec"></path>
        <path stroke-width="32.38" fill="none" stroke-linecap="round" stroke-linejoin="round" stroke="#0354ec" d="M422.15 215.86v17.35c0 9.588-7.772 17.36-17.36 17.36q0 0 0 0c-9.588 0-17.36-7.772-17.36-17.36v-17.35c0-9.588 7.772-17.36 17.36-17.36q0 0 0 0c9.588 0 17.36 7.772 17.36 17.36"></path>
        <path d="M404.79 199.5c9.02 0 16.36 7.34 16.36 16.36v17.36c0 9.02-7.34 16.36-16.36 16.36s-16.36-7.34-16.36-16.36v-17.36c0-9.02 7.34-16.36 16.36-16.36m0-1c-9.55 0-17.36 7.81-17.36 17.36v17.36c0 9.55 7.81 17.36 17.36 17.36s17.36-7.81 17.36-17.36v-17.36c0-9.55-7.81-17.36-17.36-17.36" stroke-width="32.38" fill="none" stroke-linecap="round" stroke-linejoin="round" stroke="#0354ec"></path>
        <path stroke-width="32.38" fill="none" stroke-linecap="round" stroke-linejoin="round" stroke="#0354ec" d="M241.14 217.72v17.35c0 9.588-7.772 17.36-17.36 17.36q0 0 0 0c-9.588 0-17.36-7.772-17.36-17.36v-17.35c0-9.588 7.772-17.36 17.36-17.36q0 0 0 0c9.588 0 17.36 7.772 17.36 17.36"></path>
        <path d="M223.77 201.36c9.02 0 16.36 7.34 16.36 16.36v17.36c0 9.02-7.34 16.36-16.36 16.36s-16.36-7.34-16.36-16.36v-17.36c0-9.02 7.34-16.36 16.36-16.36m0-1c-9.55 0-17.36 7.81-17.36 17.36v17.36c0 9.55 7.81 17.36 17.36 17.36s17.36-7.81 17.36-17.36v-17.36c0-9.55-7.81-17.36-17.36-17.36" stroke-width="32.38" fill="none" stroke-linecap="round" stroke-linejoin="round" stroke="#0354ec"></path>
        <path stroke-width="32.38" fill="none" stroke-linecap="round" stroke-linejoin="round" stroke="#0354ec" d="M325.88 66.21v12.9c0 7.196-5.834 13.03-13.03 13.03H189.9c-7.196 0-13.03-5.834-13.03-13.03v-12.9c0-7.196 5.834-13.03 13.03-13.03h122.95c7.196 0 13.03 5.834 13.03 13.03"></path>
        <path d="M312.85 54.18c6.64 0 12.03 5.4 12.03 12.03V79.1c0 6.64-5.4 12.03-12.03 12.03H189.91c-6.63 0-12.03-5.4-12.03-12.03V66.21c0-6.64 5.4-12.03 12.03-12.03zm0-1H189.91c-7.17 0-13.03 5.86-13.03 13.03V79.1c0 7.17 5.86 13.03 13.03 13.03h122.94c7.17 0 13.03-5.86 13.03-13.03V66.21c0-7.17-5.86-13.03-13.03-13.03" stroke-width="32.38" fill="none" stroke-linecap="round" stroke-linejoin="round" stroke="#0354ec"></path>
        <path d="M386.34 61.97c41.69-2.13 73.31 25.53 74.94 67.43 1.83 47.02-33.18 78.86-79.83 73.96-83.9-8.82-82.53-136.92 4.89-141.39m.32 44.48c-23.79 2.98-24 50.85 1.21 53.1 14.14 1.26 22.28-7.86 23.99-21.15 2.22-17.17-5.24-34.45-25.21-31.95Z" stroke-width="32.38" fill="none" stroke-linecap="round" stroke-linejoin="round" stroke="#0354ec"></path>
        <path d="M268.03 62.48c7.34-1.19 15.43-1.27 22.77-.13 10.16 1.57 31.9 9.55 34.78 10.62.19.07.31.24.3.45-.06.88-.26 3.38-.76 6.33l-27.79 32.31c-4.56-3.98-10.19-9.12-16.36-10.22-4.1-.73-14.4-.29-14.08 5.67.16 3.06 3.37 3.54 5.74 3.97 21.35 3.9 49.89 3.65 59.48 27.95 11.69 29.64-7.11 54.62-35.85 61.89-24.9 6.3-54.62 1.85-71.03-19.34l26.67-30.93c6.8 7.21 16.28 12.42 26.4 12.66 3.69.09 13.08-.33 13.1-5.52.01-3.1-3.19-3.99-5.62-4.5-5-1.05-10.71-1.22-15.88-2.1-25.03-4.23-45.13-13.5-46.35-42.06-1.1-25.61 20.96-43.23 44.49-47.05Z" stroke-width="32.38" fill="none" stroke-linecap="round" stroke-linejoin="round" stroke="#0354ec"></path>
        <path stroke-width="32.38" fill="none" stroke-linecap="round" stroke-linejoin="round" stroke="#0354ec" d="M229.44 65.75v134.11h-46.46V65.75z"></path>
        <path d="m195.63 122.99-47.29 5.97c-.87-14.06-10.61-25.18-25.64-22.48-20.27 3.64-24.48 43.05-6.22 51.62 14.2 6.66 27.35-2.81 30.64-16.95l45.15 15.53c-8.28 28.17-31.56 46.43-61.03 47.32-51.65 1.56-84-38.19-73.3-88.39 9.05-42.47 50.47-62.13 90.98-50.3 26.78 7.82 44.41 29.99 46.71 57.69Z" stroke-width="32.38" fill="none" stroke-linecap="round" stroke-linejoin="round" stroke="#0354ec"></path>
        <path d="M386.34 54.65c41.69-2.13 73.31 25.53 74.94 67.43 1.83 47.02-33.18 78.86-79.83 73.96-83.9-8.82-82.53-136.92 4.89-141.39m.32 44.48c-23.79 2.98-24 50.85 1.21 53.1 14.14 1.26 22.28-7.86 23.99-21.15 2.22-17.17-5.24-34.45-25.21-31.95Z" stroke-width="32.38" fill="none" stroke-linecap="round" stroke-linejoin="round" stroke="#0354ec"></path>
        <path stroke-width="32.38" fill="none" stroke-linecap="round" stroke-linejoin="round" stroke="#0354ec" d="M302 84.26v85.36h-45.55V84.26z"></path>
        <path d="M268.03 55.16c7.34-1.19 15.43-1.27 22.77-.13 12.95 2.01 25 8.3 34.32 17.4l-27.79 32.31c-4.56-3.98-10.19-9.12-16.36-10.22-4.1-.73-14.4-.29-14.08 5.67.16 3.06 3.37 3.54 5.74 3.97 21.35 3.9 49.89 3.65 59.48 27.95 11.69 29.64-7.11 54.62-35.85 61.89-24.9 6.3-54.62 1.85-71.03-19.34l26.67-30.93c6.8 7.21 16.28 12.42 26.4 12.66 3.69.09 13.08-.33 13.1-5.52.01-3.1-3.19-3.99-5.62-4.5-5-1.05-10.71-1.22-15.88-2.1-25.03-4.23-45.13-13.5-46.35-42.06-1.1-25.61 20.96-43.23 44.49-47.05Z" stroke-width="32.38" fill="none" stroke-linecap="round" stroke-linejoin="round" stroke="#0354ec"></path>
        <path d="M231.07 102.01c6.3-29.54 35.1-43.22 63.28-34.99" stroke-width="32.38" fill="none" stroke-linecap="round" stroke-linejoin="round" stroke="#0354ec"></path>
        <path stroke-width="32.38" fill="none" stroke-linecap="round" stroke-linejoin="round" stroke="#0354ec" d="M229.44 58.43v134.11h-46.46V58.43z"></path>
        <path d="m195.63 115.67-47.29 5.97c-.87-14.06-10.61-25.18-25.64-22.48-20.27 3.64-24.48 43.05-6.22 51.62 14.2 6.66 27.35-2.81 30.64-16.95l45.15 15.53c-8.28 28.17-31.56 46.43-61.03 47.32-51.65 1.56-84-38.19-73.3-88.39 9.05-42.47 50.47-62.13 90.98-50.3 26.78 7.82 44.41 29.99 46.71 57.69Z" stroke-width="32.38" fill="none" stroke-linecap="round" stroke-linejoin="round" stroke="#0354ec"></path>
        <path d="M69.02 111.16c7.6-35.64 42.35-52.14 76.35-42.22" stroke-width="32.38" fill="none" stroke-linecap="round" stroke-linejoin="round" stroke="#0354ec"></path>
        <path d="M332.08 109.36c7.6-35.64 42.35-52.14 76.35-42.22" stroke-width="32.38" fill="none" stroke-linecap="round" stroke-linejoin="round" stroke="#0354ec"></path>
        <path stroke-width="32.38" fill="none" stroke-linecap="round" stroke-linejoin="round" stroke="#0354ec" d="M191.67 76.63V65.9h28.83"></path>
        <path d="M170.05 216.36c45.33-2.32 76.8 29.82 74.92 74.85-1.83 43.84-36.81 71.06-79.82 66.53-83.85-8.82-82.44-136.92 4.89-141.39Zm.31 44.47c-24.46 3.06-25.17 56.28 6.98 53.07 18.24-1.82 21.9-26.56 16.07-40.48-4.15-9.91-12.45-13.92-23.05-12.59" stroke-width="32.38" fill="none" stroke-linecap="round" stroke-linejoin="round" stroke="#0354ec"></path>
        <path d="m383.44 354.24 46.82-134.07 52.69-.05 46.32 123.57a17.63 17.63 0 0 1 .93 8.84l-.26 1.72H476.7l-4.1-17.33-.57-.42-34.66.06-4.88 17.69h-49.05Zm64.54-54.81h15.49l-7.26-28.69z" stroke-width="32.38" fill="none" stroke-linecap="round" stroke-linejoin="round" stroke="#0354ec"></path>
        <path d="m280.88 322.65-2.65 30.51-47.34-4.29 12.34-133.36 59.97 5.2c28.91 2.97 49.38 23.89 47.98 53.51-.94 20.01-11.51 37.14-29.96 45.2-13.03 5.69-26.46 4.73-40.34 3.24Zm2.82-39.88 9.16.8c14.03 1.22 16.12-22.22 2.04-23.44l-9.16-.8z" stroke-width="32.38" fill="none" stroke-linecap="round" stroke-linejoin="round" stroke="#0354ec"></path>
        <path stroke-width="32.38" fill="none" stroke-linecap="round" stroke-linejoin="round" stroke="#0354ec" d="M393.14 220.13v134.11h-46.46V220.13z"></path>
        <path d="M170.05 209.04c45.33-2.32 76.8 29.82 74.92 74.85-1.83 43.84-36.81 71.06-79.82 66.53-83.85-8.82-82.44-136.92 4.89-141.39Zm.31 44.47c-24.46 3.06-25.17 56.28 6.98 53.07 18.24-1.82 21.9-26.56 16.07-40.48-4.15-9.91-12.45-13.92-23.05-12.59" stroke-width="32.38" fill="none" stroke-linecap="round" stroke-linejoin="round" stroke="#0354ec"></path>
        <path d="m383.44 346.92 46.82-134.07 52.69-.05 46.98 134.13h-53.24l-4.1-17.33-.57-.42-34.66.06-4.88 17.69h-49.05Zm64.54-54.81h15.49l-7.26-28.69z" stroke-width="32.38" fill="none" stroke-linecap="round" stroke-linejoin="round" stroke="#0354ec"></path>
        <path d="m280.88 315.33-2.65 30.51-46.61-4.05 11.61-133.6 59.97 5.2c28.91 2.97 49.38 23.89 47.98 53.51-.94 20.01-11.51 37.14-29.96 45.2-13.03 5.69-26.46 4.73-40.34 3.24Zm2.82-39.88 9.16.8c14.03 1.22 16.12-22.22 2.04-23.44l-9.16-.8z" stroke-width="32.38" fill="none" stroke-linecap="round" stroke-linejoin="round" stroke="#0354ec"></path>
        <path stroke-width="32.38" fill="none" stroke-linecap="round" stroke-linejoin="round" stroke="#0354ec" d="M393.14 212.81v134.11h-46.46V212.81z"></path>
        <path d="M116.06 263.49c7.6-35.64 42.35-52.14 76.35-42.22" stroke-width="32.38" fill="none" stroke-linecap="round" stroke-linejoin="round" stroke="#0354ec"></path>
        <path stroke-width="32.38" fill="none" stroke-linecap="round" stroke-linejoin="round" stroke="#0354ec" d="m250.04 227.98 1.06-10.68 28.69 2.84"></path>
        <path stroke-width="32.38" fill="none" stroke-linecap="round" stroke-linejoin="round" stroke="#0354ec" d="M354.88 230.44v-10.73h28.83"></path>
        <path stroke-width="32.38" fill="none" stroke-linecap="round" stroke-linejoin="round" stroke="#0354ec" d="m433.22 229.98 3.56-10.27h28.83"></path>
        <path stroke-width="32.38" fill="none" stroke-linecap="round" stroke-linejoin="round" stroke="#0354ec" d="M130.02 220.13v43.52H96.79v90.59H50v-90.59H16.44v-43.52z"></path>
        <path stroke-width="32.38" fill="none" stroke-linecap="round" stroke-linejoin="round" stroke="#0354ec" d="M130.02 212.81v43.52H96.79v90.59H50v-90.59H16.44v-43.52z"></path>
        <path stroke-width="32.38" fill="none" stroke-linecap="round" stroke-linejoin="round" stroke="#0354ec" d="M24.79 231.01v-10.73h97.09"></path>
        <path d="M296.43 5.93c-1.15-.21-3.1-.71-4.11-1.72h0c-.99-.99-1.5-2.94-1.72-4.09-.04-.16-.27-.16-.3 0-.21 1.15-.71 3.1-1.72 4.11-1.01.99-2.95 1.5-4.11 1.72-.16.04-.16.27 0 .29 1.15.21 3.1.71 4.11 1.72 1.14 1.14 1.58 2.79 1.76 3.88.03.16.27.16.3 0 .24-1.17.74-2.95 1.68-3.89 1.01-.99 2.95-1.5 4.11-1.72.16-.04.16-.27 0-.3m-46.94 36.59V11.98c0-.25.2-.46.46-.46h6.79c.25 0 .46.2.46.46v30.54c0 .25-.2.46-.46.46h-6.79c-.25 0-.46-.2-.46-.46m10.96.46c-.3 0-.5-.32-.36-.59h-.01l11.59-22.76a.4.4 0 0 0-.36-.59h-10.84c-.27 0-.47-.2-.47-.46v-6.62c0-.25.21-.46.47-.46h24.42c.31 0 .51.34.36.6l-12.94 23.36c-.15.27.05.6.36.6h12.44c.27 0 .47.2.47.46v5.98c0 .25-.21.46-.47.46h-24.66Zm-20.96-31.47h7.15c.32 0 .55.34.43.63l-11.81 30.73c-.05.13-.23.13-.3.01l-7.19-14.4a.81.81 0 0 0-.72-.44c-.3 0-.58.15-.72.44l-7.19 14.4c-.07.12-.24.12-.3-.01l-11.81-30.73c-.11-.31.11-.63.43-.63h7.14c.19 0 .36.12.43.3l5.03 13.16c.05.12.24.13.3 0l6-13.07c.13-.3.42-.47.7-.47.28.01.55.17.68.47l6 13.07c.05.13.24.13.3 0l5.03-13.16c.07-.17.24-.3.43-.3Z" fill="none" stroke-linecap="round" stroke-linejoin="round" stroke="#ffffff" stroke-width="25.18"></path>
        <path fill="none" stroke-linecap="round" stroke-linejoin="round" stroke="#ffffff" stroke-width="25.18" d="M141.95 125.35v17.35c0 9.588-7.772 17.36-17.36 17.36q0 0 0 0c-9.588 0-17.36-7.772-17.36-17.36v-17.35c0-9.588 7.772-17.36 17.36-17.36q0 0 0 0c9.588 0 17.36 7.772 17.36 17.36"></path>
        <path d="M124.59 108.99c9.02 0 16.36 7.34 16.36 16.36v17.36c0 9.02-7.34 16.36-16.36 16.36s-16.36-7.34-16.36-16.36v-17.36c0-9.02 7.34-16.36 16.36-16.36m0-1c-9.55 0-17.36 7.81-17.36 17.36v17.36c0 9.55 7.81 17.36 17.36 17.36s17.36-7.81 17.36-17.36v-17.36c0-9.55-7.81-17.36-17.36-17.36" fill="none" stroke-linecap="round" stroke-linejoin="round" stroke="#ffffff" stroke-width="25.18"></path>
        <path fill="none" stroke-linecap="round" stroke-linejoin="round" stroke="#ffffff" stroke-width="25.18" d="M192.45 268.23v17.35c0 9.588-7.772 17.36-17.36 17.36q0 0 0 0c-9.588 0-17.36-7.772-17.36-17.36v-17.35c0-9.588 7.772-17.36 17.36-17.36q0 0 0 0c9.588 0 17.36 7.772 17.36 17.36"></path>
        <path d="M175.09 251.87c9.02 0 16.36 7.34 16.36 16.36v17.36c0 9.02-7.34 16.36-16.36 16.36s-16.36-7.34-16.36-16.36v-17.36c0-9.02 7.34-16.36 16.36-16.36m0-1c-9.55 0-17.36 7.81-17.36 17.36v17.36c0 9.55 7.81 17.36 17.36 17.36h0c9.55 0 17.36-7.81 17.36-17.36v-17.36c0-9.55-7.81-17.36-17.36-17.36" fill="none" stroke-linecap="round" stroke-linejoin="round" stroke="#ffffff" stroke-width="25.18"></path>
        <path fill="none" stroke-linecap="round" stroke-linejoin="round" stroke="#ffffff" stroke-width="25.18" d="M399.32 126.59v17.35c0 9.588-7.772 17.36-17.36 17.36q0 0 0 0c-9.588 0-17.36-7.772-17.36-17.36v-17.35c0-9.588 7.772-17.36 17.36-17.36q0 0 0 0c9.588 0 17.36 7.772 17.36 17.36"></path>
        <path d="M381.96 110.23c9.02 0 16.36 7.34 16.36 16.36v17.36c0 9.02-7.34 16.36-16.36 16.36s-16.36-7.34-16.36-16.36v-17.36c0-9.02 7.34-16.36 16.36-16.36m0-1c-9.55 0-17.36 7.81-17.36 17.36v17.36c0 9.55 7.81 17.36 17.36 17.36s17.36-7.81 17.36-17.36v-17.36c0-9.55-7.81-17.36-17.36-17.36" fill="none" stroke-linecap="round" stroke-linejoin="round" stroke="#ffffff" stroke-width="25.18"></path>
        <path fill="none" stroke-linecap="round" stroke-linejoin="round" stroke="#ffffff" stroke-width="25.18" d="M345.28 202.84v17.35c0 9.588-7.772 17.36-17.36 17.36q0 0 0 0c-9.588 0-17.36-7.772-17.36-17.36v-17.35c0-9.588 7.772-17.36 17.36-17.36q0 0 0 0c9.588 0 17.36 7.772 17.36 17.36"></path>
        <path d="M327.92 186.48c9.02 0 16.36 7.34 16.36 16.36v17.36c0 9.02-7.34 16.36-16.36 16.36s-16.36-7.34-16.36-16.36v-17.36c0-9.02 7.34-16.36 16.36-16.36m0-1c-9.55 0-17.36 7.81-17.36 17.36v17.36c0 9.55 7.81 17.36 17.36 17.36s17.36-7.81 17.36-17.36v-17.36c0-9.55-7.81-17.36-17.36-17.36" fill="none" stroke-linecap="round" stroke-linejoin="round" stroke="#ffffff" stroke-width="25.18"></path>
        <path fill="none" stroke-linecap="round" stroke-linejoin="round" stroke="#ffffff" stroke-width="25.18" d="M422.15 215.86v17.35c0 9.588-7.772 17.36-17.36 17.36q0 0 0 0c-9.588 0-17.36-7.772-17.36-17.36v-17.35c0-9.588 7.772-17.36 17.36-17.36q0 0 0 0c9.588 0 17.36 7.772 17.36 17.36"></path>
        <path d="M404.79 199.5c9.02 0 16.36 7.34 16.36 16.36v17.36c0 9.02-7.34 16.36-16.36 16.36s-16.36-7.34-16.36-16.36v-17.36c0-9.02 7.34-16.36 16.36-16.36m0-1c-9.55 0-17.36 7.81-17.36 17.36v17.36c0 9.55 7.81 17.36 17.36 17.36s17.36-7.81 17.36-17.36v-17.36c0-9.55-7.81-17.36-17.36-17.36" fill="none" stroke-linecap="round" stroke-linejoin="round" stroke="#ffffff" stroke-width="25.18"></path>
        <path fill="none" stroke-linecap="round" stroke-linejoin="round" stroke="#ffffff" stroke-width="25.18" d="M241.14 217.72v17.35c0 9.588-7.772 17.36-17.36 17.36q0 0 0 0c-9.588 0-17.36-7.772-17.36-17.36v-17.35c0-9.588 7.772-17.36 17.36-17.36q0 0 0 0c9.588 0 17.36 7.772 17.36 17.36"></path>
        <path d="M223.77 201.36c9.02 0 16.36 7.34 16.36 16.36v17.36c0 9.02-7.34 16.36-16.36 16.36s-16.36-7.34-16.36-16.36v-17.36c0-9.02 7.34-16.36 16.36-16.36m0-1c-9.55 0-17.36 7.81-17.36 17.36v17.36c0 9.55 7.81 17.36 17.36 17.36s17.36-7.81 17.36-17.36v-17.36c0-9.55-7.81-17.36-17.36-17.36" fill="none" stroke-linecap="round" stroke-linejoin="round" stroke="#ffffff" stroke-width="25.18"></path>
        <path fill="none" stroke-linecap="round" stroke-linejoin="round" stroke="#ffffff" stroke-width="25.18" d="M325.88 66.21v12.9c0 7.196-5.834 13.03-13.03 13.03H189.9c-7.196 0-13.03-5.834-13.03-13.03v-12.9c0-7.196 5.834-13.03 13.03-13.03h122.95c7.196 0 13.03 5.834 13.03 13.03"></path>
        <path d="M312.85 54.18c6.64 0 12.03 5.4 12.03 12.03V79.1c0 6.64-5.4 12.03-12.03 12.03H189.91c-6.63 0-12.03-5.4-12.03-12.03V66.21c0-6.64 5.4-12.03 12.03-12.03zm0-1H189.91c-7.17 0-13.03 5.86-13.03 13.03V79.1c0 7.17 5.86 13.03 13.03 13.03h122.94c7.17 0 13.03-5.86 13.03-13.03V66.21c0-7.17-5.86-13.03-13.03-13.03" fill="none" stroke-linecap="round" stroke-linejoin="round" stroke="#ffffff" stroke-width="25.18"></path>
        <path d="M386.34 61.97c41.69-2.13 73.31 25.53 74.94 67.43 1.83 47.02-33.18 78.86-79.83 73.96-83.9-8.82-82.53-136.92 4.89-141.39m.32 44.48c-23.79 2.98-24 50.85 1.21 53.1 14.14 1.26 22.28-7.86 23.99-21.15 2.22-17.17-5.24-34.45-25.21-31.95Z" fill="none" stroke-linecap="round" stroke-linejoin="round" stroke="#ffffff" stroke-width="25.18"></path>
        <path d="M268.03 62.48c7.34-1.19 15.43-1.27 22.77-.13 10.16 1.57 31.9 9.55 34.78 10.62.19.07.31.24.3.45-.06.88-.26 3.38-.76 6.33l-27.79 32.31c-4.56-3.98-10.19-9.12-16.36-10.22-4.1-.73-14.4-.29-14.08 5.67.16 3.06 3.37 3.54 5.74 3.97 21.35 3.9 49.89 3.65 59.48 27.95 11.69 29.64-7.11 54.62-35.85 61.89-24.9 6.3-54.62 1.85-71.03-19.34l26.67-30.93c6.8 7.21 16.28 12.42 26.4 12.66 3.69.09 13.08-.33 13.1-5.52.01-3.1-3.19-3.99-5.62-4.5-5-1.05-10.71-1.22-15.88-2.1-25.03-4.23-45.13-13.5-46.35-42.06-1.1-25.61 20.96-43.23 44.49-47.05Z" fill="none" stroke-linecap="round" stroke-linejoin="round" stroke="#ffffff" stroke-width="25.18"></path>
        <path fill="none" stroke-linecap="round" stroke-linejoin="round" stroke="#ffffff" stroke-width="25.18" d="M229.44 65.75v134.11h-46.46V65.75z"></path>
        <path d="m195.63 122.99-47.29 5.97c-.87-14.06-10.61-25.18-25.64-22.48-20.27 3.64-24.48 43.05-6.22 51.62 14.2 6.66 27.35-2.81 30.64-16.95l45.15 15.53c-8.28 28.17-31.56 46.43-61.03 47.32-51.65 1.56-84-38.19-73.3-88.39 9.05-42.47 50.47-62.13 90.98-50.3 26.78 7.82 44.41 29.99 46.71 57.69Z" fill="none" stroke-linecap="round" stroke-linejoin="round" stroke="#ffffff" stroke-width="25.18"></path>
        <path d="M386.34 54.65c41.69-2.13 73.31 25.53 74.94 67.43 1.83 47.02-33.18 78.86-79.83 73.96-83.9-8.82-82.53-136.92 4.89-141.39m.32 44.48c-23.79 2.98-24 50.85 1.21 53.1 14.14 1.26 22.28-7.86 23.99-21.15 2.22-17.17-5.24-34.45-25.21-31.95Z" fill="none" stroke-linecap="round" stroke-linejoin="round" stroke="#ffffff" stroke-width="25.18"></path>
        <path fill="none" stroke-linecap="round" stroke-linejoin="round" stroke="#ffffff" stroke-width="25.18" d="M302 84.26v85.36h-45.55V84.26z"></path>
        <path d="M268.03 55.16c7.34-1.19 15.43-1.27 22.77-.13 12.95 2.01 25 8.3 34.32 17.4l-27.79 32.31c-4.56-3.98-10.19-9.12-16.36-10.22-4.1-.73-14.4-.29-14.08 5.67.16 3.06 3.37 3.54 5.74 3.97 21.35 3.9 49.89 3.65 59.48 27.95 11.69 29.64-7.11 54.62-35.85 61.89-24.9 6.3-54.62 1.85-71.03-19.34l26.67-30.93c6.8 7.21 16.28 12.42 26.4 12.66 3.69.09 13.08-.33 13.1-5.52.01-3.1-3.19-3.99-5.62-4.5-5-1.05-10.71-1.22-15.88-2.1-25.03-4.23-45.13-13.5-46.35-42.06-1.1-25.61 20.96-43.23 44.49-47.05Z" fill="none" stroke-linecap="round" stroke-linejoin="round" stroke="#ffffff" stroke-width="25.18"></path>
        <path d="M231.07 102.01c6.3-29.54 35.1-43.22 63.28-34.99" fill="none" stroke-linecap="round" stroke-linejoin="round" stroke="#ffffff" stroke-width="25.18"></path>
        <path fill="none" stroke-linecap="round" stroke-linejoin="round" stroke="#ffffff" stroke-width="25.18" d="M229.44 58.43v134.11h-46.46V58.43z"></path>
        <path d="m195.63 115.67-47.29 5.97c-.87-14.06-10.61-25.18-25.64-22.48-20.27 3.64-24.48 43.05-6.22 51.62 14.2 6.66 27.35-2.81 30.64-16.95l45.15 15.53c-8.28 28.17-31.56 46.43-61.03 47.32-51.65 1.56-84-38.19-73.3-88.39 9.05-42.47 50.47-62.13 90.98-50.3 26.78 7.82 44.41 29.99 46.71 57.69Z" fill="none" stroke-linecap="round" stroke-linejoin="round" stroke="#ffffff" stroke-width="25.18"></path>
        <path d="M69.02 111.16c7.6-35.64 42.35-52.14 76.35-42.22" fill="none" stroke-linecap="round" stroke-linejoin="round" stroke="#ffffff" stroke-width="25.18"></path>
        <path d="M332.08 109.36c7.6-35.64 42.35-52.14 76.35-42.22" fill="none" stroke-linecap="round" stroke-linejoin="round" stroke="#ffffff" stroke-width="25.18"></path>
        <path fill="none" stroke-linecap="round" stroke-linejoin="round" stroke="#ffffff" stroke-width="25.18" d="M191.67 76.63V65.9h28.83"></path>
        <path d="M170.05 216.36c45.33-2.32 76.8 29.82 74.92 74.85-1.83 43.84-36.81 71.06-79.82 66.53-83.85-8.82-82.44-136.92 4.89-141.39Zm.31 44.47c-24.46 3.06-25.17 56.28 6.98 53.07 18.24-1.82 21.9-26.56 16.07-40.48-4.15-9.91-12.45-13.92-23.05-12.59" fill="none" stroke-linecap="round" stroke-linejoin="round" stroke="#ffffff" stroke-width="25.18"></path>
        <path d="m383.44 354.24 46.82-134.07 52.69-.05 46.32 123.57a17.63 17.63 0 0 1 .93 8.84l-.26 1.72H476.7l-4.1-17.33-.57-.42-34.66.06-4.88 17.69h-49.05Zm64.54-54.81h15.49l-7.26-28.69z" fill="none" stroke-linecap="round" stroke-linejoin="round" stroke="#ffffff" stroke-width="25.18"></path>
        <path d="m280.88 322.65-2.65 30.51-47.34-4.29 12.34-133.36 59.97 5.2c28.91 2.97 49.38 23.89 47.98 53.51-.94 20.01-11.51 37.14-29.96 45.2-13.03 5.69-26.46 4.73-40.34 3.24Zm2.82-39.88 9.16.8c14.03 1.22 16.12-22.22 2.04-23.44l-9.16-.8z" fill="none" stroke-linecap="round" stroke-linejoin="round" stroke="#ffffff" stroke-width="25.18"></path>
        <path fill="none" stroke-linecap="round" stroke-linejoin="round" stroke="#ffffff" stroke-width="25.18" d="M393.14 220.13v134.11h-46.46V220.13z"></path>
        <path d="M170.05 209.04c45.33-2.32 76.8 29.82 74.92 74.85-1.83 43.84-36.81 71.06-79.82 66.53-83.85-8.82-82.44-136.92 4.89-141.39Zm.31 44.47c-24.46 3.06-25.17 56.28 6.98 53.07 18.24-1.82 21.9-26.56 16.07-40.48-4.15-9.91-12.45-13.92-23.05-12.59" fill="none" stroke-linecap="round" stroke-linejoin="round" stroke="#ffffff" stroke-width="25.18"></path>
        <path d="m383.44 346.92 46.82-134.07 52.69-.05 46.98 134.13h-53.24l-4.1-17.33-.57-.42-34.66.06-4.88 17.69h-49.05Zm64.54-54.81h15.49l-7.26-28.69z" fill="none" stroke-linecap="round" stroke-linejoin="round" stroke="#ffffff" stroke-width="25.18"></path>
        <path d="m280.88 315.33-2.65 30.51-46.61-4.05 11.61-133.6 59.97 5.2c28.91 2.97 49.38 23.89 47.98 53.51-.94 20.01-11.51 37.14-29.96 45.2-13.03 5.69-26.46 4.73-40.34 3.24Zm2.82-39.88 9.16.8c14.03 1.22 16.12-22.22 2.04-23.44l-9.16-.8z" fill="none" stroke-linecap="round" stroke-linejoin="round" stroke="#ffffff" stroke-width="25.18"></path>
        <path fill="none" stroke-linecap="round" stroke-linejoin="round" stroke="#ffffff" stroke-width="25.18" d="M393.14 212.81v134.11h-46.46V212.81z"></path>
        <path d="M116.06 263.49c7.6-35.64 42.35-52.14 76.35-42.22" fill="none" stroke-linecap="round" stroke-linejoin="round" stroke="#ffffff" stroke-width="25.18"></path>
        <path fill="none" stroke-linecap="round" stroke-linejoin="round" stroke="#ffffff" stroke-width="25.18" d="m250.04 227.98 1.06-10.68 28.69 2.84"></path>
        <path fill="none" stroke-linecap="round" stroke-linejoin="round" stroke="#ffffff" stroke-width="25.18" d="M354.88 230.44v-10.73h28.83"></path>
        <path fill="none" stroke-linecap="round" stroke-linejoin="round" stroke="#ffffff" stroke-width="25.18" d="m433.22 229.98 3.56-10.27h28.83"></path>
        <path fill="none" stroke-linecap="round" stroke-linejoin="round" stroke="#ffffff" stroke-width="25.18" d="M130.02 220.13v43.52H96.79v90.59H50v-90.59H16.44v-43.52z"></path>
        <path fill="none" stroke-linecap="round" stroke-linejoin="round" stroke="#ffffff" stroke-width="25.18" d="M130.02 212.81v43.52H96.79v90.59H50v-90.59H16.44v-43.52z"></path>
        <path fill="none" stroke-linecap="round" stroke-linejoin="round" stroke="#ffffff" stroke-width="25.18" d="M24.79 231.01v-10.73h97.09"></path>
        <path d="M296.43 5.93c-1.15-.21-3.1-.71-4.11-1.72-.99-.99-1.5-2.94-1.72-4.09-.04-.16-.27-.16-.3 0-.21 1.15-.71 3.1-1.72 4.11-1.01.99-2.95 1.5-4.11 1.72-.16.04-.16.27 0 .29 1.15.21 3.1.71 4.11 1.72 1.14 1.14 1.58 2.79 1.76 3.88.03.16.27.16.3 0 .24-1.17.74-2.95 1.68-3.89 1.01-.99 2.95-1.5 4.11-1.72.16-.04.16-.27 0-.3m-46.94 36.59V11.98c0-.25.2-.46.46-.46h6.79c.25 0 .46.2.46.46v30.54c0 .25-.2.46-.46.46h-6.79c-.25 0-.46-.2-.46-.46m10.96.46c-.3 0-.5-.32-.36-.59h-.01l11.59-22.76a.4.4 0 0 0-.36-.59h-10.84c-.27 0-.47-.2-.47-.46v-6.62c0-.25.21-.46.47-.46h24.42c.31 0 .51.34.36.6l-12.94 23.36c-.15.27.05.6.36.6h12.44c.27 0 .47.2.47.46v5.98c0 .25-.21.46-.47.46h-24.66Zm-20.96-31.47h7.15c.32 0 .55.34.43.63l-11.81 30.73c-.05.13-.23.13-.3.01l-7.19-14.4a.81.81 0 0 0-.72-.44c-.3 0-.58.15-.72.44l-7.19 14.4c-.07.12-.24.12-.3-.01l-11.81-30.73c-.11-.31.11-.63.43-.63h7.14c.19 0 .36.12.43.3l5.03 13.16c.05.12.24.13.3 0l6-13.07c.13-.3.42-.47.7-.47.28.01.55.17.68.47l6 13.07c.05.13.24.13.3 0l5.03-13.16c.07-.17.24-.3.43-.3Z" fill="#0254ec"></path>
        <path fill="#ffffff" d="M141.95 125.35v17.35c0 9.588-7.772 17.36-17.36 17.36s-17.36-7.772-17.36-17.36v-17.35c0-9.588 7.772-17.36 17.36-17.36s17.36 7.772 17.36 17.36"></path>
        <path fill="#ffffff" d="M192.45 268.23v17.35c0 9.588-7.772 17.36-17.36 17.36s-17.36-7.772-17.36-17.36v-17.35c0-9.588 7.772-17.36 17.36-17.36s17.36 7.772 17.36 17.36"></path>
        <path fill="#ffffff" d="M399.32 126.59v17.35c0 9.588-7.772 17.36-17.36 17.36s-17.36-7.772-17.36-17.36v-17.35c0-9.588 7.772-17.36 17.36-17.36s17.36 7.772 17.36 17.36"></path>
        <path fill="#ffffff" d="M345.28 202.84v17.35c0 9.588-7.772 17.36-17.36 17.36s-17.36-7.772-17.36-17.36v-17.35c0-9.588 7.772-17.36 17.36-17.36s17.36 7.772 17.36 17.36"></path>
        <path fill="#ffffff" d="M422.15 215.86v17.35c0 9.588-7.772 17.36-17.36 17.36s-17.36-7.772-17.36-17.36v-17.35c0-9.588 7.772-17.36 17.36-17.36s17.36 7.772 17.36 17.36"></path>
        <path fill="#ffffff" d="M241.14 217.72v17.35c0 9.588-7.772 17.36-17.36 17.36s-17.36-7.772-17.36-17.36v-17.35c0-9.588 7.772-17.36 17.36-17.36s17.36 7.772 17.36 17.36"></path>
        <path fill="#ffffff" d="M325.88 66.21v12.9c0 7.196-5.834 13.03-13.03 13.03H189.9c-7.196 0-13.03-5.834-13.03-13.03v-12.9c0-7.196 5.834-13.03 13.03-13.03h122.95c7.196 0 13.03 5.834 13.03 13.03"></path>
        <path d="M386.34 61.97c41.69-2.13 73.31 25.53 74.94 67.43 1.83 47.02-33.18 78.86-79.83 73.96-83.9-8.82-82.53-136.92 4.89-141.39Zm.32 44.48c-23.79 2.98-24 50.85 1.21 53.1 14.14 1.26 22.28-7.86 23.99-21.15 2.22-17.17-5.24-34.45-25.21-31.95Z" stroke="#0254ec" stroke-miterlimit="10" stroke-width="3.02" fill="#0254ec"></path>
        <path d="M268.03 62.48c7.34-1.19 15.43-1.27 22.77-.13 10.16 1.57 31.9 9.55 34.78 10.62.19.07.31.24.3.45-.06.88-.26 3.38-.76 6.33l-27.79 32.31c-4.56-3.98-10.19-9.12-16.36-10.22-4.1-.73-14.4-.29-14.08 5.67.16 3.06 3.37 3.54 5.74 3.97 21.35 3.9 49.89 3.65 59.48 27.95 11.69 29.64-7.11 54.62-35.85 61.89-24.9 6.3-54.62 1.85-71.03-19.34l26.67-30.93c6.8 7.21 16.28 12.42 26.4 12.66 3.69.09 13.08-.33 13.1-5.52.01-3.1-3.19-3.99-5.62-4.5-5-1.05-10.71-1.22-15.88-2.1-25.03-4.23-45.13-13.5-46.35-42.06-1.1-25.61 20.96-43.23 44.49-47.05Z" stroke="#0254ec" stroke-miterlimit="10" stroke-width="3.02" fill="#0254ec"></path>
        <path stroke="#0254ec" stroke-miterlimit="10" stroke-width="3.02" fill="#0254ec" d="M229.44 65.75v134.11h-46.46V65.75z"></path>
        <path d="m195.63 122.99-47.29 5.97c-.87-14.06-10.61-25.18-25.64-22.48-20.27 3.64-24.48 43.05-6.22 51.62 14.2 6.66 27.35-2.81 30.64-16.95l45.15 15.53c-8.28 28.17-31.56 46.43-61.03 47.32-51.65 1.56-84-38.19-73.3-88.39 9.05-42.47 50.47-62.13 90.98-50.3 26.78 7.82 44.41 29.99 46.71 57.69Z" stroke="#0254ec" stroke-miterlimit="10" stroke-width="3.02" fill="#0254ec"></path>
        <path d="M386.34 54.65c41.69-2.13 73.31 25.53 74.94 67.43 1.83 47.02-33.18 78.86-79.83 73.96-83.9-8.82-82.53-136.92 4.89-141.39Zm.32 44.48c-23.79 2.98-24 50.85 1.21 53.1 14.14 1.26 22.28-7.86 23.99-21.15 2.22-17.17-5.24-34.45-25.21-31.95Z" stroke="#0254ec" stroke-miterlimit="10" stroke-width="3.02" fill="#ffa18f"></path>
        <path stroke="#0254ec" stroke-miterlimit="10" stroke-width="3.02" fill="#0254ec" d="M302 84.26v85.36h-45.55V84.26z"></path>
        <path d="M268.03 55.16c7.34-1.19 15.43-1.27 22.77-.13 12.95 2.01 25 8.3 34.32 17.4l-27.79 32.31c-4.56-3.98-10.19-9.12-16.36-10.22-4.1-.73-14.4-.29-14.08 5.67.16 3.06 3.37 3.54 5.74 3.97 21.35 3.9 49.89 3.65 59.48 27.95 11.69 29.64-7.11 54.62-35.85 61.89-24.9 6.3-54.62 1.85-71.03-19.34l26.67-30.93c6.8 7.21 16.28 12.42 26.4 12.66 3.69.09 13.08-.33 13.1-5.52.01-3.1-3.19-3.99-5.62-4.5-5-1.05-10.71-1.22-15.88-2.1-25.03-4.23-45.13-13.5-46.35-42.06-1.1-25.61 20.96-43.23 44.49-47.05Z" stroke="#0254ec" stroke-miterlimit="10" stroke-width="3.02" fill="#f9646e"></path>
        <path d="M231.07 102.01c6.3-29.54 35.1-43.22 63.28-34.99" fill="none" stroke-linecap="round" stroke-linejoin="round" stroke-width="3.6" stroke="#ffffff"></path>
        <path stroke="#0254ec" stroke-miterlimit="10" stroke-width="3.02" fill="#ffce00" d="M229.44 58.43v134.11h-46.46V58.43z"></path>
        <path d="m195.63 115.67-47.29 5.97c-.87-14.06-10.61-25.18-25.64-22.48-20.27 3.64-24.48 43.05-6.22 51.62 14.2 6.66 27.35-2.81 30.64-16.95l45.15 15.53c-8.28 28.17-31.56 46.43-61.03 47.32-51.65 1.56-84-38.19-73.3-88.39 9.05-42.47 50.47-62.13 90.98-50.3 26.78 7.82 44.41 29.99 46.71 57.69Z" stroke="#0254ec" stroke-miterlimit="10" stroke-width="3.02" fill="#fff200"></path>
        <path d="M69.02 111.16c7.6-35.64 42.35-52.14 76.35-42.22" fill="none" stroke-linecap="round" stroke-linejoin="round" stroke-width="3.6" stroke="#ffffff"></path>
        <path d="M332.08 109.36c7.6-35.64 42.35-52.14 76.35-42.22" fill="none" stroke-linecap="round" stroke-linejoin="round" stroke-width="3.6" stroke="#ffffff"></path>
        <path fill="none" stroke-linecap="round" stroke-linejoin="round" stroke-width="3.6" stroke="#ffffff" d="M191.67 76.63V65.9h28.83"></path>
        <path d="M170.05 216.36c45.33-2.32 76.8 29.82 74.92 74.85-1.83 43.84-36.81 71.06-79.82 66.53-83.85-8.82-82.44-136.92 4.89-141.39Zm.31 44.47c-24.46 3.06-25.17 56.28 6.98 53.07 18.24-1.82 21.9-26.56 16.07-40.48-4.15-9.91-12.45-13.92-23.05-12.59Z" stroke="#0254ec" stroke-miterlimit="10" stroke-width="3.02" fill="#0254ec"></path>
        <path d="m383.44 354.24 46.82-134.07 52.69-.05 46.32 123.57a17.63 17.63 0 0 1 .93 8.84l-.26 1.72H476.7l-4.1-17.33-.57-.42-34.66.06-4.88 17.69h-49.05Zm64.54-54.81h15.49l-7.26-28.69z" stroke="#0254ec" stroke-miterlimit="10" stroke-width="3.02" fill="#0254ec"></path>
        <path d="m280.88 322.65-2.65 30.51-47.34-4.29 12.34-133.36 59.97 5.2c28.91 2.97 49.38 23.89 47.98 53.51-.94 20.01-11.51 37.14-29.96 45.2-13.03 5.69-26.46 4.73-40.34 3.24Zm2.82-39.88 9.16.8c14.03 1.22 16.12-22.22 2.04-23.44l-9.16-.8z" stroke="#0254ec" stroke-miterlimit="10" stroke-width="3.02" fill="#0254ec"></path>
        <path stroke="#0254ec" stroke-miterlimit="10" stroke-width="3.02" fill="#0254ec" d="M393.14 220.13v134.11h-46.46V220.13z"></path>
        <path d="M170.05 209.04c45.33-2.32 76.8 29.82 74.92 74.85-1.83 43.84-36.81 71.06-79.82 66.53-83.85-8.82-82.44-136.92 4.89-141.39Zm.31 44.47c-24.46 3.06-25.17 56.28 6.98 53.07 18.24-1.82 21.9-26.56 16.07-40.48-4.15-9.91-12.45-13.92-23.05-12.59Z" fill="#f595f5" stroke="#0254ec" stroke-miterlimit="10" stroke-width="3.02"></path>
        <path d="m383.44 346.92 46.82-134.07 52.69-.05 46.98 134.13h-53.24l-4.1-17.33-.57-.42-34.66.06-4.88 17.69h-49.05Zm64.54-54.81h15.49l-7.26-28.69z" stroke="#0254ec" stroke-miterlimit="10" stroke-width="3.02" fill="#8193fc"></path>
        <path d="m280.88 315.33-2.65 30.51-46.61-4.05 11.61-133.6 59.97 5.2c28.91 2.97 49.38 23.89 47.98 53.51-.94 20.01-11.51 37.14-29.96 45.2-13.03 5.69-26.46 4.73-40.34 3.24Zm2.82-39.88 9.16.8c14.03 1.22 16.12-22.22 2.04-23.44l-9.16-.8z" stroke="#0254ec" stroke-miterlimit="10" stroke-width="3.02" fill="#5de2b9"></path>
        <path stroke="#0254ec" stroke-miterlimit="10" stroke-width="3.02" fill="#1dbaff" d="M393.14 212.81v134.11h-46.46V212.81z"></path>
        <path d="M116.06 263.49c7.6-35.64 42.35-52.14 76.35-42.22" fill="none" stroke-linecap="round" stroke-linejoin="round" stroke-width="3.6" stroke="#ffffff"></path>
        <path fill="none" stroke-linecap="round" stroke-linejoin="round" stroke-width="3.6" stroke="#ffffff" d="m250.04 227.98 1.06-10.68 28.69 2.84"></path>
        <path fill="none" stroke-linecap="round" stroke-linejoin="round" stroke-width="3.6" stroke="#ffffff" d="M354.88 230.44v-10.73h28.83"></path>
        <path fill="none" stroke-linecap="round" stroke-linejoin="round" stroke-width="3.6" stroke="#ffffff" d="m433.22 229.98 3.56-10.27h28.83"></path>
        <path stroke="#0254ec" stroke-miterlimit="10" stroke-width="3.02" fill="#0254ec" d="M130.02 220.13v43.52H96.79v90.59H50v-90.59H16.44v-43.52z"></path>
        <path stroke="#0254ec" stroke-miterlimit="10" stroke-width="3.02" fill="#ffbfff" d="M130.02 212.81v43.52H96.79v90.59H50v-90.59H16.44v-43.52z"></path>
        <path fill="none" stroke-linecap="round" stroke-linejoin="round" stroke-width="3.6" stroke="#ffffff" d="M24.79 231.01v-10.73h97.09"></path>
        <path d="M19.26 434.26c-3.97 0-7.39-.86-10.28-2.58s-5.11-4.12-6.66-7.2S0 417.86 0 413.86s.77-7.66 2.32-10.74 3.77-5.5 6.66-7.25c2.89-1.76 6.32-2.63 10.28-2.63 4.87 0 8.88 1.23 12.01 3.68 3.13 2.46 5.06 5.91 5.78 10.37h-9.29c-.45-2-1.42-3.56-2.89-4.67s-3.38-1.67-5.72-1.67-4.13.53-5.69 1.59c-1.57 1.06-2.76 2.54-3.57 4.45s-1.22 4.2-1.22 6.88.41 4.86 1.22 6.77 2 3.38 3.57 4.42 3.46 1.56 5.69 1.56c2.34 0 4.25-.5 5.72-1.5s2.44-2.45 2.89-4.33h9.29c-.72 4.19-2.64 7.49-5.78 9.89s-7.14 3.6-12.01 3.6Z" fill="#ffffff"></path>
        <path d="M42.77 433.58v-40.79h8.5v40.79z" fill="#ffffff"></path>
        <path d="M71.78 434.26c-2.76 0-5.24-.64-7.45-1.93-2.21-1.28-3.95-3.05-5.21-5.3-1.27-2.25-1.9-4.81-1.9-7.68s.63-5.55 1.9-7.82 3-4.03 5.21-5.3c2.21-1.26 4.69-1.9 7.45-1.9s5.28.63 7.45 1.9 3.9 3.02 5.18 5.27 1.93 4.84 1.93 7.79-.64 5.49-1.93 7.73c-1.29 2.25-3.01 4.01-5.18 5.3-2.17 1.28-4.66 1.93-7.45 1.93Zm0-7.36c1.1 0 2.09-.28 2.97-.85.89-.57 1.6-1.42 2.12-2.55.53-1.13.79-2.53.79-4.19s-.26-3.06-.79-4.19-1.24-1.98-2.12-2.55c-.89-.57-1.88-.85-2.97-.85s-2.14.28-3.03.85q-1.335.855-2.1 2.55c-.51 1.13-.76 2.53-.76 4.19s.25 3.06.76 4.19q.765 1.695 2.1 2.55c.89.57 1.9.85 3.03.85" fill="#ffffff"></path>
        <path d="M103.05 434.26c-2.38 0-4.38-.48-6.01-1.44s-2.86-2.42-3.71-4.36-1.27-4.28-1.27-7v-16.43h8.44v15.58c0 2.15.44 3.78 1.33 4.87.89 1.1 2.28 1.64 4.16 1.64 1.21 0 2.27-.27 3.17-.82.91-.55 1.62-1.32 2.12-2.32s.76-2.22.76-3.65v-15.3h8.5v28.55h-7.42l-.68-4.53c-.83 1.55-2.04 2.8-3.63 3.77-1.59.96-3.51 1.44-5.78 1.44Z" fill="#ffffff"></path>
        <path d="M139.99 434.26c-2.53 0-4.82-.64-6.86-1.93-2.04-1.28-3.64-3.05-4.82-5.3-1.17-2.25-1.76-4.81-1.76-7.68s.59-5.45 1.78-7.73 2.82-4.07 4.9-5.35 4.42-1.93 7.03-1.93c2 0 3.73.35 5.18 1.05q2.175 1.05 3.54 2.97v-15.58h8.5v40.79h-7.54l-.91-3.74c-.57.79-1.26 1.53-2.07 2.21s-1.79 1.22-2.95 1.61c-1.15.4-2.5.59-4.05.59Zm2.27-7.42c1.4 0 2.62-.33 3.68-.99a7 7 0 0 0 2.49-2.66c.6-1.11.91-2.43.91-3.94s-.3-2.72-.91-3.85a6.66 6.66 0 0 0-2.52-2.66c-1.08-.64-2.29-.96-3.65-.96s-2.63.33-3.71.99a6.7 6.7 0 0 0-2.49 2.66c-.59 1.12-.88 2.39-.88 3.82s.29 2.78.88 3.91a6.7 6.7 0 0 0 2.49 2.69c1.08.66 2.31.99 3.71.99" fill="#ffffff"></path>
        <path d="M190.64 434.26q-4.245 0-7.68-1.44c-2.29-.96-4.09-2.39-5.41-4.28s-2.04-4.21-2.15-6.97h9.06c.04 1.1.31 2.06.82 2.89s1.22 1.48 2.12 1.95c.91.47 1.96.71 3.17.71 1.06 0 1.97-.16 2.75-.48.77-.32 1.39-.79 1.84-1.42s.68-1.41.68-2.35-.25-1.82-.76-2.52-1.23-1.3-2.15-1.81c-.93-.51-1.99-.98-3.2-1.42a94 94 0 0 0-3.8-1.27c-3.13-1.02-5.54-2.4-7.22-4.14s-2.52-4.06-2.52-6.97c0-2.42.59-4.49 1.78-6.2 1.19-1.72 2.82-3.03 4.9-3.94s4.42-1.36 7.02-1.36c2.76 0 5.17.46 7.22 1.39 2.06.93 3.7 2.27 4.93 4.02 1.23 1.76 1.88 3.84 1.96 6.26h-9.18c0-.83-.23-1.59-.68-2.27s-1.05-1.23-1.78-1.64c-.74-.42-1.58-.62-2.52-.62-.87-.04-1.66.08-2.38.37-.72.28-1.29.72-1.7 1.3-.42.59-.62 1.31-.62 2.18s.22 1.56.65 2.18 1.04 1.15 1.81 1.59c.77.43 1.68.84 2.72 1.22s2.16.76 3.37 1.13c2.04.68 3.9 1.48 5.58 2.41s3.03 2.13 4.05 3.63c1.02 1.49 1.53 3.46 1.53 5.92 0 2.15-.55 4.14-1.64 5.95-1.1 1.81-2.7 3.27-4.82 4.36s-4.7 1.64-7.76 1.64Z" fill="#ffffff"></path>
        <path d="M224.63 434.26c-2.95 0-5.52-.61-7.73-1.84a13.2 13.2 0 0 1-5.18-5.16c-1.25-2.21-1.87-4.75-1.87-7.62s.6-5.57 1.81-7.88c1.21-2.3 2.94-4.12 5.18-5.44 2.25-1.32 4.84-1.98 7.79-1.98s5.38.61 7.54 1.84q3.225 1.845 5.04 5.07c1.21 2.15 1.81 4.63 1.81 7.42 0 .38 0 .8-.03 1.28-.02.47-.05.95-.08 1.44h-23.06v-4.99h14.62c-.11-1.55-.7-2.81-1.76-3.8q-1.59-1.47-4.02-1.47c-1.25 0-2.36.28-3.34.85s-1.75 1.43-2.29 2.58c-.55 1.15-.82 2.6-.82 4.33v1.64c0 1.32.25 2.5.74 3.54a5.4 5.4 0 0 0 2.21 2.41c.98.57 2.1.85 3.34.85s2.33-.25 3.14-.76 1.45-1.14 1.9-1.9h8.67c-.53 1.74-1.44 3.34-2.72 4.82s-2.84 2.63-4.67 3.48-3.9 1.27-6.2 1.27Z" fill="#ffffff"></path>
        <path d="M258.86 434.26c-2.95 0-5.54-.64-7.79-1.93a13.6 13.6 0 0 1-5.24-5.27c-1.25-2.23-1.87-4.76-1.87-7.59s.62-5.56 1.87-7.85c1.25-2.28 2.99-4.07 5.24-5.35s4.84-1.93 7.79-1.93c3.74 0 6.88.98 9.43 2.95 2.55 1.96 4.16 4.68 4.84 8.16h-9.06c-.26-1.21-.87-2.15-1.81-2.83s-2.1-1.02-3.46-1.02c-1.28 0-2.39.31-3.31.94-.93.62-1.63 1.51-2.12 2.66s-.74 2.52-.74 4.11c0 1.17.14 2.23.42 3.17s.69 1.75 1.22 2.41 1.18 1.18 1.96 1.56q1.155.57 2.58.57c.87 0 1.67-.15 2.41-.45s1.35-.75 1.84-1.33q.735-.87 1.02-2.07h9.06c-.68 3.4-2.3 6.1-4.87 8.1s-5.7 3-9.4 3Z" fill="#ffffff"></path>
        <path d="M289.9 434.26c-2.38 0-4.38-.48-6.01-1.44s-2.86-2.42-3.71-4.36-1.27-4.28-1.27-7v-16.43h8.44v15.58c0 2.15.44 3.78 1.33 4.87.89 1.1 2.28 1.64 4.16 1.64 1.21 0 2.27-.27 3.17-.82.91-.55 1.62-1.32 2.12-2.32s.76-2.22.76-3.65v-15.3h8.5v28.55h-7.42l-.68-4.53c-.83 1.55-2.04 2.8-3.63 3.77-1.59.96-3.51 1.44-5.78 1.44Z" fill="#ffffff"></path>
        <path d="M314.26 433.58v-28.55h7.54l.74 5.21c.75-1.21 1.64-2.25 2.66-3.12a11.6 11.6 0 0 1 3.51-2.04c1.32-.49 2.79-.74 4.42-.74v9.01h-2.89c-1.13 0-2.15.12-3.06.37s-1.7.65-2.38 1.22-1.19 1.33-1.53 2.29-.51 2.16-.51 3.6v12.75z" fill="#ffffff"></path>
        <path d="M341.8 401.74c-1.51 0-2.74-.43-3.68-1.3s-1.42-1.96-1.42-3.29.47-2.47 1.42-3.34c.94-.87 2.17-1.3 3.68-1.3s2.8.43 3.77 1.3c.96.87 1.44 1.98 1.44 3.34s-.48 2.42-1.44 3.29-2.22 1.3-3.77 1.3m-4.25 31.84v-28.55h8.5v28.55z" fill="#ffffff"></path>
        <path d="M366.33 433.58c-2.04 0-3.85-.33-5.44-.99s-2.81-1.75-3.68-3.26-1.3-3.57-1.3-6.18V412.1h-4.93v-7.08h4.93l.91-8.04h7.59v8.04h7.2v7.08h-7.2v11.16c0 1.13.25 1.94.76 2.41s1.39.71 2.63.71h3.85v7.2h-5.33Z" fill="#ffffff"></path>
        <path d="m381.4 446.05 6.91-15.64h-1.7l-11.56-25.38h9.24l7.88 17.34 6.57-17.34h9.07l-17.39 41.02h-9.01Z" fill="#ffffff"></path>
        <path d="M428.71 401.74c-1.51 0-2.74-.43-3.68-1.3s-1.42-1.96-1.42-3.29.47-2.47 1.42-3.34c.94-.87 2.17-1.3 3.68-1.3s2.8.43 3.77 1.3c.96.87 1.44 1.98 1.44 3.34s-.48 2.42-1.44 3.29-2.22 1.3-3.77 1.3m-4.25 31.84v-28.55h8.5v28.55z" fill="#ffffff"></path>
        <path d="M451.82 434.26c-2.72 0-5.05-.43-7-1.3s-3.48-2.03-4.59-3.48a9.24 9.24 0 0 1-1.9-4.96h8.44c.15.6.42 1.16.82 1.67s.93.92 1.61 1.22 1.49.45 2.44.45 1.66-.12 2.27-.37c.6-.25 1.05-.58 1.33-.99.28-.42.42-.85.42-1.3 0-.72-.22-1.26-.65-1.62s-1.07-.67-1.9-.93-1.83-.51-3-.74q-2.04-.51-4.05-1.08t-3.6-1.5c-1.06-.62-1.89-1.4-2.49-2.32s-.91-2.12-.91-3.6c0-1.7.46-3.23 1.39-4.59.92-1.36 2.29-2.45 4.08-3.26s3.96-1.22 6.49-1.22c3.55 0 6.35.79 8.41 2.38s3.28 3.72 3.65 6.4h-7.93c-.23-.75-.69-1.34-1.39-1.76s-1.63-.62-2.8-.62-2.13.22-2.78.65q-.96.645-.96 1.62c0 .45.22.87.65 1.25s1.07.71 1.9.99 1.83.54 3 .77c2.3.45 4.3.97 5.98 1.56s3 1.43 3.97 2.52c.96 1.1 1.44 2.64 1.44 4.65 0 1.85-.5 3.48-1.5 4.9s-2.44 2.54-4.31 3.37-4.05 1.25-6.54 1.25Z" fill="#ffffff"></path>
        <path d="M497.88 434.26c-2.95 0-5.64-.59-8.07-1.78-2.44-1.19-4.36-2.97-5.78-5.35s-2.12-5.38-2.12-9.01v-24.19h8.5v24.25c0 1.78.29 3.29.88 4.53.58 1.25 1.45 2.18 2.61 2.8 1.15.62 2.54.93 4.16.93s3.07-.31 4.22-.93 2.03-1.56 2.63-2.8c.6-1.25.91-2.76.91-4.53v-24.25h8.5v24.19c0 3.63-.75 6.63-2.24 9.01s-3.48 4.16-5.95 5.35-5.22 1.78-8.24 1.78Z" fill="#ffffff"></path>
        <path d="M532.78 434.26c-2.72 0-5.05-.43-7-1.3s-3.48-2.03-4.59-3.48a9.24 9.24 0 0 1-1.9-4.96h8.44c.15.6.42 1.16.82 1.67s.93.92 1.61 1.22 1.49.45 2.44.45 1.66-.12 2.27-.37c.6-.25 1.05-.58 1.33-.99.28-.42.42-.85.42-1.3 0-.72-.22-1.26-.65-1.62s-1.07-.67-1.9-.93-1.83-.51-3-.74q-2.04-.51-4.05-1.08t-3.6-1.5c-1.06-.62-1.89-1.4-2.49-2.32s-.91-2.12-.91-3.6c0-1.7.46-3.23 1.39-4.59.92-1.36 2.29-2.45 4.08-3.26s3.96-1.22 6.49-1.22c3.55 0 6.35.79 8.41 2.38s3.28 3.72 3.65 6.4h-7.93c-.23-.75-.69-1.34-1.39-1.76s-1.63-.62-2.8-.62-2.13.22-2.78.65q-.96.645-.96 1.62c0 .45.22.87.65 1.25s1.07.71 1.9.99 1.83.54 3 .77c2.3.45 4.3.97 5.98 1.56s3 1.43 3.97 2.52c.96 1.1 1.44 2.64 1.44 4.65 0 1.85-.5 3.48-1.5 4.9s-2.44 2.54-4.31 3.37-4.05 1.25-6.54 1.25Z" fill="#ffffff"></path>
    </g>
</svg>
